<svg width="70" height="70" viewBox="0 0 70 70" fill="none" xmlns="http://www.w3.org/2000/svg">
<path d="M41.3292 60.9291C53.5325 60.1212 63.2508 50.2629 64.05 37.8875C64.2046 35.4666 64.2046 32.9583 64.05 30.5375C63.2508 18.165 53.5325 8.31248 41.3292 7.49873C37.1143 7.22097 32.8857 7.22097 28.6708 7.49873C16.4675 8.30956 6.74915 18.165 5.94998 30.5404C5.79548 32.988 5.79548 35.4428 5.94998 37.8904C6.24165 42.3966 8.23373 46.5704 10.5817 50.0937C11.9437 52.5583 11.0454 55.6354 9.62498 58.3275C8.60415 60.2671 8.09082 61.2354 8.50207 61.9354C8.9104 62.6354 9.82915 62.6587 11.6637 62.7025C15.295 62.79 17.7421 61.7633 19.6846 60.3312C20.7842 59.5175 21.3354 59.1121 21.7146 59.0654C22.0937 59.0187 22.8433 59.3279 24.3367 59.9404C25.6783 60.4946 27.2387 60.8358 28.6679 60.9321C32.8242 61.2062 37.1671 61.2062 41.3321 60.9321" stroke="white" stroke-width="4.375" stroke-linecap="round" stroke-linejoin="round"/>
<path d="M21.875 43.75L27.2475 27.6325C27.3824 27.2303 27.6402 26.8806 27.9846 26.6328C28.3289 26.3851 28.7424 26.2518 29.1667 26.2518C29.5909 26.2518 30.0044 26.3851 30.3488 26.6328C30.6931 26.8806 30.951 27.2303 31.0858 27.6325L36.4583 43.75M45.2083 26.25V43.75M24.7917 37.9167H33.5417" stroke="white" stroke-width="4.375" stroke-linecap="round" stroke-linejoin="round"/>
</svg>
