<svg width="70" height="70" viewBox="0 0 70 70" fill="none" xmlns="http://www.w3.org/2000/svg">
<path d="M19.1771 62.0375L22.5546 54.4834C21.7243 53.9137 20.9271 53.3167 20.1629 52.6925C19.4007 52.0703 18.6715 51.3742 17.9754 50.6042C17.6623 50.75 17.3328 50.8599 16.9866 50.9338C16.6405 51.0057 16.3051 51.0417 15.9804 51.0417C14.5998 51.0417 13.4137 50.5459 12.4221 49.5542C11.4284 48.5606 10.9316 47.3745 10.9316 45.9959C10.9316 45.2103 11.1105 44.4627 11.4683 43.753C11.8261 43.0432 12.3122 42.4589 12.9266 42C12.5378 40.882 12.2529 39.7523 12.0721 38.6109C11.8912 37.4695 11.7989 36.2659 11.795 35C11.7911 33.7342 11.8834 32.5316 12.0721 31.3921C12.2607 30.2527 12.5465 29.122 12.9296 28C12.3132 27.5392 11.8261 26.9549 11.4683 26.2471C11.1105 25.5393 10.9316 24.7927 10.9316 24.0071C10.9316 22.6266 11.4275 21.4405 12.4191 20.4488C13.4128 19.4552 14.5989 18.9584 15.9775 18.9584C16.3041 18.9584 16.6405 18.9953 16.9866 19.0692C17.3328 19.1411 17.6633 19.25 17.9783 19.3959C19.5825 17.6459 21.3986 16.1778 23.4266 14.9917C25.4547 13.8056 27.6354 12.9403 29.9687 12.3959C30.1379 11.1611 30.7125 10.1141 31.6925 9.25462C32.6744 8.39518 33.7828 7.96545 35.0175 7.96545C36.2522 7.96545 37.3605 8.37962 38.3425 9.20795C39.3244 10.0363 39.898 11.062 40.0633 12.285C42.4725 12.8295 44.6911 13.6918 46.7191 14.8721C48.7472 16.0524 50.5643 17.5117 52.1704 19.25C52.4834 19.1042 52.7916 19.0138 53.095 18.9788C53.3983 18.9438 53.7065 18.9263 54.0196 18.9263C55.4001 18.9263 56.5862 19.4221 57.5779 20.4138C58.5715 21.4055 59.0683 22.5916 59.0683 23.9721C59.0683 24.7577 58.8933 25.4995 58.5433 26.1975C58.1933 26.8956 57.714 27.4741 57.1054 27.933C57.4943 29.0607 57.7801 30.205 57.9629 31.3659C58.1457 32.5248 58.2371 33.7361 58.2371 35C58.2371 36.2639 58.1457 37.4918 57.9629 38.6838C57.7801 39.8757 57.4943 41.0298 57.1054 42.1459C57.6732 42.6067 58.1233 43.1667 58.4558 43.8259C58.7903 44.487 58.9575 45.2093 58.9575 45.993C58.9575 47.3735 58.4607 48.5596 57.4671 49.5513C56.4754 50.5449 55.2893 51.0417 53.9087 51.0417C53.5937 51.0417 53.2846 51.0145 52.9812 50.96C52.6779 50.9056 52.3697 50.8249 52.0566 50.718C51.3605 51.488 50.6528 52.1899 49.9333 52.8238C49.2139 53.4577 48.3962 54.0605 47.4804 54.6321L50.7091 62.0346H47.7837L45.1237 55.9563C44.2934 56.3588 43.469 56.6981 42.6504 56.9742C41.8318 57.2484 40.9694 57.4963 40.0633 57.718C39.8961 58.9391 39.3225 59.9638 38.3425 60.7921C37.3625 61.6205 36.2541 62.0346 35.0175 62.0346C33.7808 62.0346 32.6725 61.6049 31.6925 60.7455C30.7125 59.886 30.1379 58.8389 29.9687 57.6042C29.0529 57.3845 28.1828 57.1366 27.3583 56.8605C26.5339 56.5863 25.7065 56.247 24.8762 55.8425L22.1054 62.0346L19.1771 62.0375ZM23.485 52.15L29.2396 39.3634C28.7457 38.7509 28.3694 38.0781 28.1108 37.345C27.8541 36.612 27.7258 35.8303 27.7258 35C27.7258 33.0148 28.4453 31.3036 29.8841 29.8667C31.3211 28.4278 33.0322 27.7084 35.0175 27.7084C37.0028 27.7084 38.7139 28.4278 40.1508 29.8667C41.5878 31.3056 42.3072 33.0167 42.3091 35C42.3091 35.8303 42.1584 36.6275 41.8571 37.3917C41.5557 38.1559 41.1532 38.8617 40.6496 39.5092L46.4041 52.2638C47.0653 51.838 47.6962 51.3732 48.2971 50.8696C48.8959 50.368 49.4647 49.8041 50.0033 49.178C49.6105 48.7521 49.3218 48.2709 49.1371 47.7342C48.9523 47.1995 48.86 46.6191 48.86 45.993C48.86 44.4374 49.4793 43.1473 50.7179 42.1225C51.9546 41.0998 53.2943 40.7449 54.7371 41.058C55.0287 40.0857 55.2669 39.1067 55.4516 38.1209C55.6364 37.135 55.7278 36.0948 55.7258 35C55.7239 33.9053 55.6325 32.8592 55.4516 31.8617C55.2708 30.8642 55.0326 29.8803 54.7371 28.91C53.2943 29.2231 51.9721 28.8673 50.7704 27.8425C49.5726 26.8178 48.9737 25.5277 48.9737 23.9721C48.9737 23.4238 49.0807 22.8861 49.2946 22.3592C49.5084 21.8342 49.7826 21.3588 50.1171 20.933C48.7073 19.4105 47.1226 18.1543 45.3629 17.1646C43.6071 16.173 41.7248 15.4098 39.7162 14.875C39.3701 15.8142 38.7741 16.5803 37.9283 17.1734C37.0825 17.7645 36.1122 18.06 35.0175 18.06C33.9228 18.06 32.9525 17.7645 32.1066 17.1734C31.2608 16.5823 30.6639 15.8161 30.3158 14.875C28.2858 15.4098 26.3919 16.1759 24.6341 17.1734C22.8764 18.1689 21.2926 19.4328 19.8829 20.965C20.2173 21.3928 20.4915 21.8692 20.7054 22.3942C20.9193 22.9192 21.0262 23.4568 21.0262 24.0071C21.0262 25.5996 20.4137 26.8868 19.1887 27.8688C17.9637 28.8507 16.6289 29.2085 15.1841 28.9421C14.8925 29.9143 14.6737 30.8934 14.5279 31.8792C14.3821 32.865 14.3091 33.9053 14.3091 35C14.3091 36.0948 14.3821 37.135 14.5279 38.1209C14.6737 39.1067 14.8925 40.0857 15.1841 41.058C16.553 40.7449 17.8694 41.091 19.1333 42.0963C20.3972 43.1016 21.0291 44.4005 21.0291 45.993C21.0291 46.6171 20.9368 47.1732 20.7521 47.6613C20.5654 48.1493 20.2757 48.6063 19.8829 49.0321C20.4215 49.6582 20.9912 50.2095 21.5921 50.6859C22.1929 51.1623 22.8239 51.6513 23.485 52.153M25.8416 53.5092C26.5261 53.865 27.2407 54.1684 27.9854 54.4192C28.7321 54.6681 29.5098 54.9034 30.3187 55.125C30.6648 54.1859 31.2608 53.4198 32.1066 52.8267C32.9505 52.2356 33.9208 51.94 35.0175 51.94C36.1141 51.94 37.0844 52.2356 37.9283 52.8267C38.7741 53.4198 39.3701 54.1859 39.7162 55.125C40.4862 54.9034 41.23 54.6866 41.9475 54.4746C42.663 54.2607 43.363 53.9759 44.0475 53.62L38.5846 41.338C38.0382 41.618 37.4772 41.8474 36.9016 42.0263C36.3261 42.2032 35.698 42.2917 35.0175 42.2917C34.3253 42.2917 33.67 42.2003 33.0516 42.0175C32.4333 41.8348 31.85 41.5596 31.3016 41.1921L25.8416 53.5092ZM35.0175 39.375C36.1841 39.375 37.205 38.9618 38.08 38.1355C38.955 37.3091 39.3925 36.2639 39.3925 35C39.3925 33.8334 38.955 32.8125 38.08 31.9375C37.205 31.0625 36.1841 30.625 35.0175 30.625C33.7536 30.625 32.7084 31.0625 31.8821 31.9375C31.0557 32.8125 30.6425 33.8334 30.6425 35C30.6425 36.2639 31.0557 37.3091 31.8821 38.1355C32.7084 38.9618 33.7536 39.375 35.0175 39.375Z" fill="white"/>
</svg>
