<svg width="58" height="64" viewBox="0 0 58 64" fill="none" xmlns="http://www.w3.org/2000/svg">
<path fill-rule="evenodd" clip-rule="evenodd" d="M15.1838 6.50837C15.3565 4.89841 16.1183 3.40913 17.3227 2.32693C18.5271 1.24472 20.0891 0.645992 21.7083 0.645874H36.2917C37.9109 0.645992 39.4729 1.24472 40.6773 2.32693C41.8817 3.40913 42.6435 4.89841 42.8162 6.50837C45.0446 6.55504 46.9667 6.66879 48.6117 6.97212C50.8225 7.38046 52.7038 8.15046 54.235 9.68462C55.9908 11.4375 56.7433 13.6513 57.0992 16.2763C57.4375 18.8021 57.4375 22.0192 57.4375 26.0063V43.8271C57.4375 47.8142 57.4375 51.0313 57.0992 53.56C56.7433 56.185 55.9908 58.3959 54.235 60.1517C52.4792 61.9075 50.2683 62.66 47.6433 63.0159C45.1146 63.3542 41.8975 63.3542 37.9104 63.3542H20.0896C16.1025 63.3542 12.8854 63.3542 10.3567 63.0159C7.73167 62.66 5.52083 61.9075 3.765 60.1517C2.00917 58.3959 1.25667 56.185 0.90375 53.56C0.5625 51.0313 0.5625 47.8142 0.5625 43.8271V26.0063C0.5625 22.0192 0.5625 18.8021 0.90375 16.2734C1.25375 13.6484 2.01208 11.4375 3.765 9.68171C5.29625 8.15046 7.1775 7.37754 9.38833 6.97212C11.0333 6.66879 12.9583 6.55504 15.1838 6.50837ZM15.1896 10.8834C13.0954 10.93 11.4796 11.035 10.1788 11.2742C8.52792 11.5775 7.56833 12.0675 6.85958 12.7763C6.05167 13.5842 5.52667 14.7159 5.23792 16.8596C4.94333 19.0588 4.9375 21.9813 4.9375 26.1667V43.6667C4.9375 47.8521 4.94333 50.7717 5.23792 52.9767C5.52667 55.1175 6.05458 56.2492 6.85958 57.0571C7.6675 57.865 8.79917 58.39 10.9429 58.6788C13.1421 58.9734 16.0646 58.9792 20.25 58.9792H37.75C41.9354 58.9792 44.855 58.9734 47.06 58.6788C49.2008 58.39 50.3325 57.8621 51.1404 57.0571C51.9483 56.2492 52.4733 55.1175 52.7621 52.9738C53.0567 50.7717 53.0625 47.8521 53.0625 43.6667V26.1667C53.0625 21.9813 53.0567 19.0588 52.7621 16.8567C52.4733 14.7159 51.9454 13.5842 51.1404 12.7763C50.4288 12.0675 49.4721 11.5805 47.8212 11.2742C46.5204 11.035 44.9046 10.93 42.8104 10.8863C42.6238 12.4842 41.8567 13.9579 40.655 15.0274C39.4532 16.0969 37.9004 16.6877 36.2917 16.6875H21.7083C20.0991 16.6876 18.546 16.0964 17.3442 15.0263C16.1423 13.9562 15.3755 12.4818 15.1896 10.8834ZM21.7083 5.02087C21.1282 5.02087 20.5718 5.25134 20.1615 5.66158C19.7513 6.07181 19.5208 6.62821 19.5208 7.20837V10.125C19.5208 11.3325 20.5008 12.3125 21.7083 12.3125H36.2917C36.8718 12.3125 37.4282 12.0821 37.8385 11.6718C38.2487 11.2616 38.4792 10.7052 38.4792 10.125V7.20837C38.4792 6.62821 38.2487 6.07181 37.8385 5.66158C37.4282 5.25134 36.8718 5.02087 36.2917 5.02087H21.7083ZM12.2292 27.625C12.2292 27.0449 12.4596 26.4885 12.8699 26.0782C13.2801 25.668 13.8365 25.4375 14.4167 25.4375H43.5833C44.1635 25.4375 44.7199 25.668 45.1301 26.0782C45.5404 26.4885 45.7708 27.0449 45.7708 27.625C45.7708 28.2052 45.5404 28.7616 45.1301 29.1718C44.7199 29.5821 44.1635 29.8125 43.5833 29.8125H14.4167C13.8365 29.8125 13.2801 29.5821 12.8699 29.1718C12.4596 28.7616 12.2292 28.2052 12.2292 27.625ZM15.1458 37.8334C15.1458 37.2532 15.3763 36.6968 15.7865 36.2866C16.1968 35.8763 16.7532 35.6459 17.3333 35.6459H40.6667C41.2468 35.6459 41.8032 35.8763 42.2135 36.2866C42.6237 36.6968 42.8542 37.2532 42.8542 37.8334C42.8542 38.4135 42.6237 38.9699 42.2135 39.3802C41.8032 39.7904 41.2468 40.0209 40.6667 40.0209H17.3333C16.7532 40.0209 16.1968 39.7904 15.7865 39.3802C15.3763 38.9699 15.1458 38.4135 15.1458 37.8334ZM18.0625 48.0417C18.0625 47.4615 18.293 46.9051 18.7032 46.4949C19.1134 46.0847 19.6698 45.8542 20.25 45.8542H37.75C38.3302 45.8542 38.8866 46.0847 39.2968 46.4949C39.707 46.9051 39.9375 47.4615 39.9375 48.0417C39.9375 48.6219 39.707 49.1783 39.2968 49.5885C38.8866 49.9987 38.3302 50.2292 37.75 50.2292H20.25C19.6698 50.2292 19.1134 49.9987 18.7032 49.5885C18.293 49.1783 18.0625 48.6219 18.0625 48.0417Z" fill="white"/>
</svg>
