<svg width="70" height="70" viewBox="0 0 70 70" fill="none" xmlns="http://www.w3.org/2000/svg">
<path d="M21.875 35C21.875 36.1603 21.4141 37.2731 20.5936 38.0936C19.7731 38.9141 18.6603 39.375 17.5 39.375C16.3397 39.375 15.2269 38.9141 14.4064 38.0936C13.5859 37.2731 13.125 36.1603 13.125 35C13.125 33.8397 13.5859 32.7269 14.4064 31.9064C15.2269 31.0859 16.3397 30.625 17.5 30.625C18.6603 30.625 19.7731 31.0859 20.5936 31.9064C21.4141 32.7269 21.875 33.8397 21.875 35ZM39.375 35C39.375 36.1603 38.9141 37.2731 38.0936 38.0936C37.2731 38.9141 36.1603 39.375 35 39.375C33.8397 39.375 32.7269 38.9141 31.9064 38.0936C31.0859 37.2731 30.625 36.1603 30.625 35C30.625 33.8397 31.0859 32.7269 31.9064 31.9064C32.7269 31.0859 33.8397 30.625 35 30.625C36.1603 30.625 37.2731 31.0859 38.0936 31.9064C38.9141 32.7269 39.375 33.8397 39.375 35ZM52.5 39.375C53.6603 39.375 54.7731 38.9141 55.5936 38.0936C56.4141 37.2731 56.875 36.1603 56.875 35C56.875 33.8397 56.4141 32.7269 55.5936 31.9064C54.7731 31.0859 53.6603 30.625 52.5 30.625C51.3397 30.625 50.2269 31.0859 49.4064 31.9064C48.5859 32.7269 48.125 33.8397 48.125 35C48.125 36.1603 48.5859 37.2731 49.4064 38.0936C50.2269 38.9141 51.3397 39.375 52.5 39.375Z" fill="white"/>
<path d="M9.47187 69.1381L9.55937 69.1206C17.5656 67.5325 22.4569 65.4369 24.7319 64.2863C28.0807 65.1826 31.5333 65.6327 35 65.625C54.3288 65.625 70 51.9137 70 35C70 18.0863 54.3288 4.375 35 4.375C15.6712 4.375 0 18.0863 0 35C0 42.7 3.25063 49.7438 8.61875 55.125C8.24459 58.5819 7.4754 61.9845 6.32625 65.2663L6.31312 65.3144C5.98619 66.2541 5.63018 67.1836 5.24563 68.1012C4.9 68.915 5.56938 69.825 6.44 69.685C7.45348 69.5189 8.46423 69.3366 9.47187 69.1381ZM12.9719 55.5406C13.0332 54.9001 12.9524 54.254 12.7354 53.6482C12.5183 53.0425 12.1704 52.4921 11.7162 52.0363C7.07875 47.3813 4.375 41.4225 4.375 35C4.375 21.035 17.5175 8.75 35 8.75C52.4825 8.75 65.625 21.035 65.625 35C65.625 48.965 52.4825 61.25 35 61.25C31.9159 61.2575 28.8443 60.8574 25.865 60.06C24.8237 59.781 23.7159 59.8963 22.7544 60.3838C21.0613 61.2413 17.3294 62.8775 11.2306 64.2906C12.0807 61.4342 12.6636 58.5049 12.9719 55.5406Z" fill="white"/>
</svg>
