<svg width="88" height="70" viewBox="0 0 88 70" fill="none" xmlns="http://www.w3.org/2000/svg">
<g clip-path="url(#clip0_576_198)">
<path d="M26.25 35C34.7129 35 41.5625 28.1504 41.5625 19.6875C41.5625 11.2246 34.7129 4.375 26.25 4.375C17.7871 4.375 10.9375 11.2246 10.9375 19.6875C10.9375 28.1504 17.7871 35 26.25 35ZM36.75 39.375H35.6152C32.7715 40.7422 29.6133 41.5625 26.25 41.5625C22.8867 41.5625 19.7422 40.7422 16.8848 39.375H15.75C7.05469 39.375 0 46.4297 0 55.125V59.0625C0 62.6855 2.93945 65.625 6.5625 65.625H45.9375C49.5605 65.625 52.5 62.6855 52.5 59.0625V55.125C52.5 46.4297 45.4453 39.375 36.75 39.375ZM65.625 35C72.8711 35 78.75 29.1211 78.75 21.875C78.75 14.6289 72.8711 8.75 65.625 8.75C58.3789 8.75 52.5 14.6289 52.5 21.875C52.5 29.1211 58.3789 35 65.625 35ZM72.1875 39.375H71.668C69.7676 40.0313 67.7578 40.4688 65.625 40.4688C63.4922 40.4688 61.4824 40.0313 59.582 39.375H59.0625C56.2734 39.375 53.7031 40.1816 51.4473 41.4805C54.7832 45.0762 56.875 49.8477 56.875 55.125V60.375C56.875 60.6758 56.8066 60.9629 56.793 61.25H80.9375C84.5605 61.25 87.5 58.3105 87.5 54.6875C87.5 46.2246 80.6504 39.375 72.1875 39.375Z" fill="white"/>
</g>
<defs>
<clipPath id="clip0_576_198">
<rect width="87.5" height="70" fill="white"/>
</clipPath>
</defs>
</svg>
