<svg width="70" height="70" viewBox="0 0 70 70" fill="none" xmlns="http://www.w3.org/2000/svg">
<path d="M15.3125 21.875C14.7323 21.875 14.1759 22.1055 13.7657 22.5157C13.3555 22.9259 13.125 23.4823 13.125 24.0625C13.125 24.6427 13.3555 25.1991 13.7657 25.6093C14.1759 26.0195 14.7323 26.25 15.3125 26.25H45.9375C46.5177 26.25 47.0741 26.0195 47.4843 25.6093C47.8945 25.1991 48.125 24.6427 48.125 24.0625C48.125 23.4823 47.8945 22.9259 47.4843 22.5157C47.0741 22.1055 46.5177 21.875 45.9375 21.875H15.3125ZM15.3125 30.625C14.7323 30.625 14.1759 30.8555 13.7657 31.2657C13.3555 31.6759 13.125 32.2323 13.125 32.8125V41.5625C13.125 42.1427 13.3555 42.6991 13.7657 43.1093C14.1759 43.5195 14.7323 43.75 15.3125 43.75H24.0625C24.6427 43.75 25.1991 43.5195 25.6093 43.1093C26.0195 42.6991 26.25 42.1427 26.25 41.5625V32.8125C26.25 32.2323 26.0195 31.6759 25.6093 31.2657C25.1991 30.8555 24.6427 30.625 24.0625 30.625H15.3125ZM17.5 39.375V35H21.875V39.375H17.5ZM32.8125 30.625C32.2323 30.625 31.6759 30.8555 31.2657 31.2657C30.8555 31.6759 30.625 32.2323 30.625 32.8125C30.625 33.3927 30.8555 33.9491 31.2657 34.3593C31.6759 34.7695 32.2323 35 32.8125 35H45.9375C46.5177 35 47.0741 34.7695 47.4843 34.3593C47.8945 33.9491 48.125 33.3927 48.125 32.8125C48.125 32.2323 47.8945 31.6759 47.4843 31.2657C47.0741 30.8555 46.5177 30.625 45.9375 30.625H32.8125ZM32.8125 39.375C32.2323 39.375 31.6759 39.6055 31.2657 40.0157C30.8555 40.4259 30.625 40.9823 30.625 41.5625C30.625 42.1427 30.8555 42.6991 31.2657 43.1093C31.6759 43.5195 32.2323 43.75 32.8125 43.75H45.9375C46.5177 43.75 47.0741 43.5195 47.4843 43.1093C47.8945 42.6991 48.125 42.1427 48.125 41.5625C48.125 40.9823 47.8945 40.4259 47.4843 40.0157C47.0741 39.6055 46.5177 39.375 45.9375 39.375H32.8125ZM4.375 17.5C4.375 15.1794 5.29687 12.9538 6.93782 11.3128C8.57876 9.67187 10.8044 8.75 13.125 8.75H48.125C50.4456 8.75 52.6712 9.67187 54.3122 11.3128C55.9531 12.9538 56.875 15.1794 56.875 17.5C59.1956 17.5 61.4212 18.4219 63.0622 20.0628C64.7031 21.7038 65.625 23.9294 65.625 26.25V45.9375C65.625 48.8383 64.4727 51.6203 62.4215 53.6715C60.3703 55.7227 57.5883 56.875 54.6875 56.875H15.3125C12.4117 56.875 9.6297 55.7227 7.57852 53.6715C5.52734 51.6203 4.375 48.8383 4.375 45.9375V17.5ZM54.6875 45.9375C54.1073 45.9375 53.5509 45.707 53.1407 45.2968C52.7305 44.8866 52.5 44.3302 52.5 43.75V17.5C52.5 16.3397 52.0391 15.2269 51.2186 14.4064C50.3981 13.5859 49.2853 13.125 48.125 13.125H13.125C11.9647 13.125 10.8519 13.5859 10.0314 14.4064C9.21094 15.2269 8.75 16.3397 8.75 17.5V45.9375C8.75 47.678 9.4414 49.3472 10.6721 50.5779C11.9028 51.8086 13.572 52.5 15.3125 52.5H54.6875C56.428 52.5 58.0972 51.8086 59.3279 50.5779C60.5586 49.3472 61.25 47.678 61.25 45.9375V26.25C61.25 25.0897 60.7891 23.9769 59.9686 23.1564C59.1481 22.3359 58.0353 21.875 56.875 21.875V43.75C56.875 44.3302 56.6445 44.8866 56.2343 45.2968C55.8241 45.707 55.2677 45.9375 54.6875 45.9375Z" fill="white"/>
</svg>
