<svg width="70" height="70" viewBox="0 0 70 70" fill="none" xmlns="http://www.w3.org/2000/svg">
<path d="M7.29163 27.7083H62.7083M7.29163 27.7083V59.7916C7.29163 60.5652 7.59892 61.307 8.1459 61.854C8.69288 62.401 9.43474 62.7083 10.2083 62.7083H59.7916C60.5652 62.7083 61.307 62.401 61.854 61.854C62.401 61.307 62.7083 60.5652 62.7083 59.7916V27.7083M7.29163 27.7083V14.5833C7.29163 13.8097 7.59892 13.0679 8.1459 12.5209C8.69288 11.9739 9.43474 11.6666 10.2083 11.6666H59.7916C60.5652 11.6666 61.307 11.9739 61.854 12.5209C62.401 13.0679 62.7083 13.8097 62.7083 14.5833V27.7083" stroke="white" stroke-width="5.83333" stroke-linejoin="round"/>
<path d="M23.3333 45.2083L32.0833 53.9583L49.5833 36.4583" stroke="white" stroke-width="5.83333" stroke-linecap="round" stroke-linejoin="round"/>
<path d="M23.3333 7.29163V18.9583M46.6666 7.29163V18.9583" stroke="white" stroke-width="5.83333" stroke-linecap="round"/>
</svg>
