<svg width="70" height="70" viewBox="0 0 70 70" fill="none" xmlns="http://www.w3.org/2000/svg">
<path d="M17.5467 13.1309C16.4058 13.1301 15.276 13.3542 14.2218 13.7905C13.1677 14.2267 12.2099 14.8665 11.4032 15.6732C10.5964 16.4799 9.95668 17.4377 9.52045 18.4919C9.08422 19.546 8.86007 20.6759 8.86084 21.8167C8.86084 28.3296 17.5467 37.9459 17.5467 37.9459C17.5467 37.9459 26.2325 28.3296 26.2325 21.8167C26.2333 20.6759 26.0091 19.546 25.5729 18.4919C25.1367 17.4377 24.4969 16.4799 23.6902 15.6732C22.8835 14.8665 21.9257 14.2267 20.8715 13.7905C19.8173 13.3542 18.6875 13.1301 17.5467 13.1309ZM17.5467 24.9171C16.9335 24.9171 16.334 24.7353 15.8242 24.3946C15.3143 24.0539 14.9169 23.5697 14.6823 23.0032C14.4476 22.4367 14.3862 21.8133 14.5058 21.2118C14.6255 20.6104 14.9207 20.058 15.3543 19.6244C15.788 19.1908 16.3404 18.8955 16.9418 18.7759C17.5432 18.6562 18.1666 18.7176 18.7332 18.9523C19.2997 19.187 19.7839 19.5843 20.1246 20.0942C20.4653 20.6041 20.6471 21.2035 20.6471 21.8167C20.6463 22.6388 20.3194 23.4269 19.7381 24.0082C19.1569 24.5895 18.3687 24.9164 17.5467 24.9171ZM61.32 32.9467V20.405C61.2982 19.0881 61.098 17.7803 60.725 16.5171C59.768 13.1785 57.6499 10.2914 54.7526 8.3763C51.8552 6.46116 48.3691 5.64387 44.9224 6.07171C41.4758 6.49955 38.2953 8.14439 35.9541 10.7098C33.6129 13.2752 32.265 16.5925 32.1533 20.0638V20.7871L32.1242 23.3246V52.3513H32.1125V52.4709C32.1125 54.018 31.4979 55.5017 30.404 56.5957C29.31 57.6896 27.8263 58.3042 26.2792 58.3042C24.7321 58.3042 23.2483 57.6896 22.1544 56.5957C21.0604 55.5017 20.4458 54.018 20.4458 52.4709L20.4575 52.363H20.4458V46.6959H14.6125V52.5292H14.6183C14.6203 55.6219 15.8507 58.5871 18.0389 60.7725C20.2271 62.958 23.1938 64.1847 26.2865 64.1827C29.3791 64.1808 32.3443 62.9504 34.5298 60.7622C36.7152 58.574 37.9419 55.6073 37.94 52.5146H37.9458V49.6505H37.9604V26.2413L37.9896 20.7871V20.0667C38.0727 17.7706 39.0554 15.5992 40.7254 14.0213C42.3955 12.4433 44.619 11.5853 46.9162 11.6324C49.2133 11.6795 51.3998 12.6279 53.0038 14.273C54.6078 15.9181 55.5006 18.1279 55.4896 20.4255V32.8942C54.3727 33.5262 53.4955 34.509 52.994 35.6903C52.4925 36.8716 52.3948 38.1853 52.716 39.4278C53.0371 40.6703 53.7593 41.7721 54.7704 42.5624C55.7815 43.3527 57.0251 43.7873 58.3084 43.7988C59.5916 43.8104 60.8428 43.3982 61.868 42.6262C62.8932 41.8543 63.635 40.7657 63.9785 39.5292C64.322 38.2927 64.2479 36.9774 63.7678 35.7873C63.2877 34.5971 62.4254 33.5987 61.32 32.9467Z" fill="white"/>
</svg>
