<svg width="59" height="62" viewBox="0 0 59 62" fill="none" xmlns="http://www.w3.org/2000/svg">
<path d="M39.375 29.1667C46.6667 29.1667 52.5 35 52.5 42.2917C52.5 44.8583 51.7708 47.25 50.4875 49.2917L59.4708 58.3333L55.4167 62.3875L46.3167 53.4333C44.3042 54.6875 41.9125 55.4167 39.375 55.4167C32.0833 55.4167 26.25 49.5833 26.25 42.2917C26.25 35 32.0833 29.1667 39.375 29.1667ZM39.375 35C37.4411 35 35.5865 35.7682 34.219 37.1357C32.8516 38.5031 32.0833 40.3578 32.0833 42.2917C32.0833 44.2255 32.8516 46.0802 34.219 47.4477C35.5865 48.8151 37.4411 49.5833 39.375 49.5833C41.3089 49.5833 43.1635 48.8151 44.531 47.4477C45.8984 46.0802 46.6667 44.2255 46.6667 42.2917C46.6667 40.3578 45.8984 38.5031 44.531 37.1357C43.1635 35.7682 41.3089 35 39.375 35ZM51.0417 0C51.4284 0 51.7994 0.153646 52.0729 0.427136C52.3464 0.700627 52.5 1.07156 52.5 1.45833V28.6125C50.8083 27.0083 48.8542 25.6958 46.6667 24.7917V7.875L37.9167 11.2583V23.3333C35.875 23.5375 33.8917 24.0333 32.0833 24.7917V11.2875L20.4167 7.20417V42.2917C20.4167 44.1583 20.6792 45.9667 21.175 47.6583L17.5 46.375L1.925 52.4125L1.45833 52.5C1.07156 52.5 0.700627 52.3464 0.427136 52.0729C0.153646 51.7994 0 51.4284 0 51.0417V6.94167C0 6.27083 0.4375 5.74583 1.05 5.54167L17.5 0L35 6.125L50.575 0.0874999L51.0417 0ZM5.83333 10.0917V44.6542L14.5833 41.2708V7.14583L5.83333 10.0917Z" fill="white"/>
</svg>
