<svg width="70" height="70" viewBox="0 0 70 70" fill="none" xmlns="http://www.w3.org/2000/svg">
<path d="M55.4167 37.9166C54.6432 37.9166 53.9013 38.2239 53.3543 38.7709C52.8073 39.3179 52.5 40.0597 52.5 40.8333V41.9416L48.1834 37.6249C46.6592 36.1128 44.5992 35.2643 42.4521 35.2643C40.3051 35.2643 38.2451 36.1128 36.7209 37.6249L34.6792 39.6666L27.4459 32.4333C25.9004 30.9621 23.8484 30.1416 21.7146 30.1416C19.5809 30.1416 17.5289 30.9621 15.9834 32.4333L11.6667 36.7499V20.4166C11.6667 19.6431 11.974 18.9012 12.521 18.3542C13.068 17.8072 13.8098 17.4999 14.5834 17.4999H35C35.7736 17.4999 36.5155 17.1926 37.0624 16.6457C37.6094 16.0987 37.9167 15.3568 37.9167 14.5833C37.9167 13.8097 37.6094 13.0679 37.0624 12.5209C36.5155 11.9739 35.7736 11.6666 35 11.6666H14.5834C12.2627 11.6666 10.0371 12.5885 8.39619 14.2294C6.75525 15.8704 5.83337 18.096 5.83337 20.4166V55.4166C5.83337 57.7373 6.75525 59.9629 8.39619 61.6038C10.0371 63.2447 12.2627 64.1666 14.5834 64.1666H49.5834C51.904 64.1666 54.1296 63.2447 55.7706 61.6038C57.4115 59.9629 58.3334 57.7373 58.3334 55.4166V40.8333C58.3334 40.0597 58.0261 39.3179 57.4791 38.7709C56.9321 38.2239 56.1903 37.9166 55.4167 37.9166ZM14.5834 58.3333C13.8098 58.3333 13.068 58.026 12.521 57.479C11.974 56.932 11.6667 56.1902 11.6667 55.4166V45.0041L20.125 36.5458C20.5535 36.1374 21.1227 35.9097 21.7146 35.9097C22.3065 35.9097 22.8757 36.1374 23.3042 36.5458L32.55 45.7916L45.0917 58.3333H14.5834ZM52.5 55.4166C52.4958 55.9749 52.3117 56.517 51.975 56.9624L38.8209 43.7499L40.8625 41.7083C41.0716 41.4949 41.3212 41.3253 41.5967 41.2096C41.8721 41.0938 42.1679 41.0342 42.4667 41.0342C42.7655 41.0342 43.0613 41.0938 43.3367 41.2096C43.6122 41.3253 43.8618 41.4949 44.0709 41.7083L52.5 50.1958V55.4166ZM66.2375 12.5124L57.4875 3.76244C57.2102 3.49691 56.8831 3.28876 56.525 3.14994C55.8149 2.85822 55.0185 2.85822 54.3084 3.14994C53.9504 3.28876 53.6233 3.49691 53.3459 3.76244L44.5959 12.5124C44.0467 13.0617 43.7381 13.8066 43.7381 14.5833C43.7381 15.36 44.0467 16.1049 44.5959 16.6541C45.1451 17.2033 45.89 17.5119 46.6667 17.5119C47.4434 17.5119 48.1883 17.2033 48.7375 16.6541L52.5 12.8624V29.1666C52.5 29.9402 52.8073 30.682 53.3543 31.229C53.9013 31.776 54.6432 32.0833 55.4167 32.0833C56.1903 32.0833 56.9321 31.776 57.4791 31.229C58.0261 30.682 58.3334 29.9402 58.3334 29.1666V12.8624L62.0959 16.6541C62.367 16.9275 62.6896 17.1445 63.045 17.2925C63.4004 17.4406 63.7817 17.5169 64.1667 17.5169C64.5517 17.5169 64.933 17.4406 65.2884 17.2925C65.6438 17.1445 65.9664 16.9275 66.2375 16.6541C66.5109 16.383 66.7279 16.0604 66.876 15.705C67.0241 15.3495 67.1003 14.9683 67.1003 14.5833C67.1003 14.1982 67.0241 13.817 66.876 13.4616C66.7279 13.1062 66.5109 12.7836 66.2375 12.5124Z" fill="white"/>
</svg>
