<svg width="60" height="60" viewBox="0 0 60 60" fill="none" xmlns="http://www.w3.org/2000/svg">
<path d="M32.9166 53.3333C33.6902 53.3333 34.432 53.6406 34.979 54.1876C35.526 54.7346 35.8333 55.4765 35.8333 56.25C35.8333 57.0235 35.526 57.7654 34.979 58.3124C34.432 58.8594 33.6902 59.1667 32.9166 59.1667C32.1431 59.1667 31.4012 58.8594 30.8542 58.3124C30.3072 57.7654 29.9999 57.0235 29.9999 56.25C29.9999 55.4765 30.3072 54.7346 30.8542 54.1876C31.4012 53.6406 32.1431 53.3333 32.9166 53.3333ZM22.7083 50.4167C23.4818 50.4167 24.2237 50.724 24.7707 51.2709C25.3176 51.8179 25.6249 52.5598 25.6249 53.3333C25.6249 54.1069 25.3176 54.8487 24.7707 55.3957C24.2237 55.9427 23.4818 56.25 22.7083 56.25C21.9347 56.25 21.1929 55.9427 20.6459 55.3957C20.0989 54.8487 19.7916 54.1069 19.7916 53.3333C19.7916 52.5598 20.0989 51.8179 20.6459 51.2709C21.1929 50.724 21.9347 50.4167 22.7083 50.4167ZM43.1249 50.4167C43.8985 50.4167 44.6404 50.724 45.1873 51.2709C45.7343 51.8179 46.0416 52.5598 46.0416 53.3333C46.0416 54.1069 45.7343 54.8487 45.1873 55.3957C44.6404 55.9427 43.8985 56.25 43.1249 56.25C42.3514 56.25 41.6095 55.9427 41.0625 55.3957C40.5156 54.8487 40.2083 54.1069 40.2083 53.3333C40.2083 52.5598 40.5156 51.8179 41.0625 51.2709C41.6095 50.724 42.3514 50.4167 43.1249 50.4167ZM32.9224 12.5262C42.1624 12.5262 47.4066 18.6425 48.1679 26.0304H48.4012C49.8136 26.0285 51.2126 26.3049 52.5183 26.8437C53.8239 27.3825 55.0106 28.1733 56.0105 29.1708C57.0105 30.1684 57.8042 31.3531 58.3462 32.6574C58.8882 33.9617 59.168 35.3601 59.1695 36.7725C59.1676 38.1847 58.8876 39.5827 58.3454 40.8867C57.8032 42.1906 57.0094 43.3751 56.0095 44.3723C55.0096 45.3695 53.823 46.16 52.5176 46.6987C51.2121 47.2373 49.8134 47.5136 48.4012 47.5117H17.4408C16.0286 47.5136 14.6298 47.2373 13.3244 46.6987C12.0189 46.16 10.8324 45.3695 9.83245 44.3723C8.83252 43.3751 8.03879 42.1906 7.4966 40.8867C6.9544 39.5827 6.67435 38.1847 6.67244 36.7725C6.67397 35.3601 6.95374 33.9617 7.49576 32.6574C8.03778 31.3531 8.83145 30.1684 9.83142 29.1708C10.8314 28.1733 12.0181 27.3825 13.3237 26.8437C14.6293 26.3049 16.0283 26.0285 17.4408 26.0304H17.6741C18.4412 18.5929 23.6824 12.5262 32.9224 12.5262ZM32.9224 16.8925C26.8791 16.8925 21.6145 21.6583 21.6145 28.2383C21.6145 29.2796 20.6841 30.0992 19.6195 30.0992H17.607C13.9262 30.0992 10.9454 33.0158 10.9454 36.6208C10.9454 40.2229 13.9262 43.1425 17.6041 43.1425H48.2379C51.9158 43.1425 54.8966 40.2258 54.8966 36.6208C54.8966 33.0188 51.9158 30.0992 48.2379 30.0992H46.2254C45.1608 30.0992 44.2304 29.2825 44.2304 28.2383C44.2304 21.5738 38.9629 16.8925 32.9224 16.8925ZM7.73702 24.645C7.93984 25.1335 7.95882 25.6789 7.79044 26.1803C7.62206 26.6817 7.27773 27.1051 6.82119 27.3721L6.55577 27.5033L3.85202 28.6233C3.34057 28.8318 2.76919 28.8391 2.25259 28.6437C1.73599 28.4483 1.31241 28.0648 1.06689 27.5701C0.821373 27.0753 0.772083 26.506 0.928919 25.9765C1.08575 25.4469 1.43711 24.9962 1.91244 24.715L2.17785 24.5808L4.88161 23.4608C5.14704 23.3509 5.43153 23.2943 5.71883 23.2943C6.00614 23.2943 6.29063 23.3509 6.55606 23.4608C6.82149 23.5708 7.06265 23.732 7.26579 23.9352C7.46892 24.1383 7.62712 24.3795 7.73702 24.645ZM26.6604 10.5487L26.1616 10.7179C24.6443 11.2488 23.2105 11.9932 21.9033 12.9287C20.4988 12.4717 18.9869 12.4626 17.577 12.9026C16.1671 13.3427 14.9289 14.2102 14.0338 15.385C13.1386 16.5598 12.6309 17.9839 12.5808 19.46C12.5307 20.9361 12.9407 22.3913 13.7541 23.6242C12.3314 24.0226 10.9842 24.6533 9.76702 25.4908C8.43022 23.1932 7.93089 20.5033 8.35399 17.8789C8.77709 15.2545 10.0965 12.8579 12.0876 11.0967C14.0788 9.33558 16.6187 8.31881 19.2751 8.21944C21.9315 8.12006 24.5403 8.94422 26.6574 10.5517M3.57785 10.6421L3.88411 10.7442L6.58494 11.8642C7.09146 12.0777 7.49902 12.4741 7.72654 12.9745C7.95406 13.4748 7.98485 14.0426 7.81279 14.5646C7.64073 15.0867 7.27844 15.5248 6.79799 15.7919C6.31754 16.0589 5.75415 16.1353 5.21994 16.0058L4.91077 15.9067L2.20994 14.7867C1.70207 14.5738 1.29319 14.1772 1.06492 13.676C0.836642 13.1749 0.805776 12.6061 0.978479 12.0832C1.15118 11.5603 1.51475 11.1218 1.99659 10.8552C2.47843 10.5886 3.0431 10.5106 3.57785 10.6421ZM14.7049 1.93583L14.8362 2.20125L15.9562 4.90208C16.1677 5.41399 16.1771 5.98706 15.9826 6.50565C15.788 7.02424 15.404 7.44972 14.908 7.69623C14.412 7.94275 13.841 7.99194 13.3102 7.83387C12.7793 7.67581 12.3282 7.32226 12.0479 6.84458L11.9137 6.57625L10.7937 3.87542C10.5852 3.36396 10.5779 2.79258 10.7733 2.27598C10.9687 1.75939 11.3522 1.33581 11.847 1.09029C12.3417 0.844769 12.911 0.795478 13.4406 0.952313C13.9701 1.10915 14.4237 1.4605 14.7049 1.93583ZM27.3983 1.00542C27.8831 1.20589 28.2797 1.5739 28.5158 2.04237C28.7519 2.51084 28.8118 3.04856 28.6845 3.5575L28.5824 3.86375L27.4654 6.56458C27.255 7.07579 26.8588 7.48839 26.3566 7.71939C25.8543 7.9504 25.2833 7.98268 24.7582 7.80975C24.2331 7.63682 23.793 7.2715 23.5263 6.78726C23.2597 6.30302 23.1862 5.73577 23.3208 5.19958L23.4229 4.89042L24.5399 2.18958C24.6498 1.92413 24.811 1.68293 25.0141 1.47975C25.2172 1.27657 25.4584 1.1154 25.7238 1.00543C25.9892 0.895469 26.2737 0.83887 26.561 0.838867C26.8483 0.838865 27.1328 0.895458 27.3983 1.00542Z" fill="white"/>
</svg>
